<svg width="506" height="481" viewBox="0 0 506 481" fill="none" xmlns="http://www.w3.org/2000/svg">
<path opacity="0.9" d="M389.008 194.943L339.449 195.825L313.906 153.347L337.921 109.986L387.48 109.104L413.024 151.582L389.008 194.943Z" fill="#282C34" stroke="#DE7C5A" stroke-width="0.75"/>
<path opacity="0.9" d="M315.008 238.943L265.449 239.825L239.906 197.347L263.921 153.986L313.48 153.104L339.024 195.582L315.008 238.943Z" fill="#282C34" stroke="#DE7C5A" stroke-width="0.75"/>
<path opacity="0.9" d="M390.008 280.943L340.449 281.825L314.906 239.347L338.921 195.986L388.48 195.104L414.024 237.582L390.008 280.943Z" fill="#282C34" stroke="#DE7C5A" stroke-width="0.75"/>
<path opacity="0.9" d="M317.008 324.943L267.449 325.825L241.906 283.347L265.921 239.986L315.48 239.104L341.024 281.582L317.008 324.943Z" fill="#282C34" stroke="#DE7C5A" stroke-width="0.75"/>
<path opacity="0.9" d="M319.008 410.544L269.449 411.427L243.906 368.948L267.921 325.588L317.48 324.705L343.024 367.184L319.008 410.544Z" fill="#282C34" stroke="#DE7C5A" stroke-width="0.75"/>
<path opacity="0.9" d="M244.203 368.943L194.644 369.825L169.101 327.347L193.116 283.986L242.675 283.104L268.219 325.582L244.203 368.943Z" fill="#282C34" stroke="#DE7C5A" stroke-width="0.75"/>
<path opacity="0.9" d="M245.203 454.943L195.644 455.825L170.101 413.347L194.116 369.986L243.675 369.104L269.219 411.582L245.203 454.943Z" fill="#282C34" stroke="#DE7C5A" stroke-width="0.75"/>
<path opacity="0.9" d="M170.203 412.943L120.644 413.825L95.1006 371.347L119.116 327.986L168.675 327.104L194.219 369.582L170.203 412.943Z" fill="#282C34" stroke="#DE7C5A" stroke-width="0.75"/>
<path opacity="0.9" d="M95.0085 370.943L45.4494 371.825L19.9056 329.347L43.9211 285.986L93.4802 285.104L119.024 327.582L95.0085 370.943Z" fill="#282C34" stroke="#DE7C5A" stroke-width="0.75"/>
<path opacity="0.9" d="M169.008 326.943L119.449 327.825L93.9056 285.347L117.921 241.986L167.48 241.104L193.024 283.582L169.008 326.943Z" fill="#282C34" stroke="#DE7C5A" stroke-width="0.75"/>
<path opacity="0.9" d="M93.5084 285.443L43.9492 286.325L18.4055 243.847L42.4209 200.486L91.9801 199.604L117.524 242.082L93.5084 285.443Z" fill="#282C34" stroke="#DE7C5A" stroke-width="0.75"/>
<path opacity="0.9" d="M386.508 110.443L336.949 111.325L311.406 68.847L335.421 25.4864L384.98 24.604L410.524 67.0823L386.508 110.443Z" fill="#282C34" stroke="#DE7C5A" stroke-width="0.75"/>
<path opacity="0.9" d="M461.508 151.443L411.949 152.325L386.406 109.847L410.421 66.4864L459.98 65.604L485.524 108.082L461.508 151.443Z" fill="#282C34" stroke="#DE7C5A" stroke-width="0.75"/>
<path opacity="0.9" d="M463.508 236.443L413.949 237.325L388.406 194.847L412.421 151.486L461.98 150.604L487.524 193.082L463.508 236.443Z" fill="#282C34" stroke="#DE7C5A" stroke-width="0.75"/>
</svg>
