<svg width="2180" height="528" viewBox="0 0 2180 528" fill="none" xmlns="http://www.w3.org/2000/svg">
<path d="M763.233 300.376L806.159 275.592L849.085 300.376V349.943L806.159 374.726L763.233 349.943V300.376Z" fill="white" stroke="#D0CDD7" stroke-width="0.75"/>
<path opacity="0.9" d="M806.888 226.292L850.082 201.978L892.736 227.228L892.196 276.792L849.002 301.106L806.348 275.856L806.888 226.292Z" fill="white" stroke="#D0CDD7" stroke-width="0.75"/>
<path d="M977.074 228.376L1020 203.592L1062.93 228.376V277.943L1020 302.726L977.074 277.943V228.376Z" fill="white" stroke="#D0CDD7" stroke-width="0.75"/>
<path opacity="0.9" d="M1020.73 154.292L1063.92 129.978L1106.58 155.228L1106.04 204.792L1062.84 229.106L1020.19 203.856L1020.73 154.292Z" fill="white" stroke="#D0CDD7" stroke-width="0.75"/>
<path d="M977.233 228.376L1020.16 203.592L1063.09 228.376V277.943L1020.16 302.726L977.233 277.943V228.376Z" fill="white" stroke="#D0CDD7" stroke-width="0.75"/>
<path opacity="0.9" d="M1020.89 154.292L1064.08 129.978L1106.74 155.228L1106.2 204.792L1063 229.106L1020.35 203.856L1020.89 154.292Z" fill="white" stroke="#D0CDD7" stroke-width="0.75"/>
<path d="M1149.07 229.376L1192 204.592L1234.93 229.376V278.943L1192 303.726L1149.07 278.943V229.376Z" fill="white" stroke="#D0CDD7" stroke-width="0.75"/>
<path opacity="0.9" d="M1191.5 155.257L1234.57 130.721L1277.35 155.75L1277.07 205.317L1234 229.853L1191.22 204.823L1191.5 155.257Z" fill="white" stroke="#D0CDD7" stroke-width="0.75"/>
<path d="M1106.07 155.376L1149 130.592L1191.93 155.376V204.943L1149 229.726L1106.07 204.943V155.376Z" fill="white" stroke="#D0CDD7" stroke-width="0.75"/>
<path opacity="0.9" d="M1149.89 81.2921L1193.08 56.9779L1235.74 82.2277L1235.2 131.792L1192 156.106L1149.35 130.856L1149.89 81.2921Z" fill="white" stroke="#D0CDD7" stroke-width="0.75"/>
<path d="M1492.13 426.134L1491.24 376.575L1533.72 351.028L1577.08 375.041L1577.96 424.6L1535.49 450.146L1492.13 426.134Z" fill="white" stroke="#D0CDD7" stroke-width="0.75"/>
<path opacity="0.9" d="M1447.84 353.108L1447.24 303.545L1489.86 278.243L1533.09 302.505L1533.69 352.068L1491.06 377.37L1447.84 353.108Z" fill="white" stroke="#D0CDD7" stroke-width="0.75"/>
<path d="M1406.56 427.902L1405.67 378.343L1448.15 352.796L1491.51 376.809L1492.4 426.368L1449.92 451.914L1406.56 427.902Z" fill="white" stroke="#D0CDD7" stroke-width="0.75"/>
<path opacity="0.9" d="M1362.97 353.682L1362.63 304.117L1405.38 279.035L1448.48 303.518L1448.82 353.084L1406.07 378.166L1362.97 353.682Z" fill="white" stroke="#D0CDD7" stroke-width="0.75"/>
<path d="M1277.07 303.376L1320 278.592L1362.93 303.376V352.943L1320 377.726L1277.07 352.943V303.376Z" fill="white" stroke="#D0CDD7" stroke-width="0.75"/>
<path opacity="0.9" d="M1319.5 229.257L1362.57 204.721L1405.35 229.75L1405.07 279.317L1362 303.853L1319.22 278.823L1319.5 229.257Z" fill="white" stroke="#D0CDD7" stroke-width="0.75"/>
<path d="M1234.07 229.376L1277 204.592L1319.93 229.376V278.943L1277 303.726L1234.07 278.943V229.376Z" fill="white" stroke="#D0CDD7" stroke-width="0.75"/>
<path opacity="0.9" d="M1277.89 155.292L1321.08 130.978L1363.74 156.228L1363.2 205.792L1320 230.106L1277.35 204.856L1277.89 155.292Z" fill="white" stroke="#D0CDD7" stroke-width="0.75"/>
<path d="M1020.07 302.376L1063 277.592L1105.93 302.376V351.943L1063 376.726L1020.07 351.943V302.376Z" fill="white" stroke="#D0CDD7" stroke-width="0.75"/>
<path opacity="0.9" d="M1063.73 228.292L1106.92 203.978L1149.58 229.228L1149.04 278.792L1105.84 303.106L1063.19 277.856L1063.73 228.292Z" fill="white" stroke="#D0CDD7" stroke-width="0.75"/>
<path d="M892.074 375.376L935 350.592L977.926 375.376V424.943L935 449.726L892.074 424.943V375.376Z" fill="white" stroke="#D0CDD7" stroke-width="0.75"/>
<path opacity="0.9" d="M935.729 301.292L978.923 276.978L1021.58 302.228L1021.04 351.792L977.843 376.106L935.189 350.856L935.729 301.292Z" fill="white" stroke="#D0CDD7" stroke-width="0.75"/>
<path d="M849.074 301.376L892 276.592L934.926 301.376V350.943L892 375.726L849.074 350.943V301.376Z" fill="white" stroke="#D0CDD7" stroke-width="0.75"/>
<path opacity="0.9" d="M892.729 227.292L935.923 202.978L978.577 228.228L978.036 277.792L934.843 302.106L892.189 276.856L892.729 227.292Z" fill="white" stroke="#D0CDD7" stroke-width="0.75"/>
<path d="M859.958 205.792L817.031 230.576L774.105 205.792V156.225L817.031 131.442L859.958 156.225V205.792Z" fill="white" stroke="#D0CDD7" stroke-width="0.75"/>
<path opacity="0.9" d="M816.302 279.876L773.108 304.19L730.455 278.94L730.995 229.376L774.189 205.062L816.842 230.312L816.302 279.876Z" fill="white" stroke="#D0CDD7" stroke-width="0.75"/>
<path d="M646.117 277.792L603.19 302.576L560.264 277.792V228.225L603.19 203.442L646.117 228.225V277.792Z" fill="white" stroke="#D0CDD7" stroke-width="0.75"/>
<path opacity="0.9" d="M602.461 351.876L559.268 376.19L516.614 350.94L517.154 301.376L560.348 277.062L603.002 302.312L602.461 351.876Z" fill="white" stroke="#D0CDD7" stroke-width="0.75"/>
<path d="M645.958 277.792L603.031 302.576L560.105 277.792V228.225L603.031 203.442L645.958 228.225V277.792Z" fill="white" stroke="#D0CDD7" stroke-width="0.75"/>
<path opacity="0.9" d="M602.302 351.876L559.108 376.19L516.455 350.94L516.995 301.376L560.189 277.062L602.842 302.312L602.302 351.876Z" fill="white" stroke="#D0CDD7" stroke-width="0.75"/>
<path d="M474.117 276.792L431.19 301.576L388.264 276.792V227.225L431.19 202.442L474.117 227.225V276.792Z" fill="white" stroke="#D0CDD7" stroke-width="0.75"/>
<path opacity="0.9" d="M431.687 350.911L388.619 375.447L345.836 350.417L346.121 300.851L389.189 276.315L431.972 301.345L431.687 350.911Z" fill="white" stroke="#D0CDD7" stroke-width="0.75"/>
<path d="M517.117 350.792L474.19 375.576L431.264 350.792V301.225L474.19 276.442L517.117 301.225V350.792Z" fill="white" stroke="#D0CDD7" stroke-width="0.75"/>
<path opacity="0.9" d="M473.302 424.876L430.108 449.19L387.455 423.94L387.995 374.376L431.189 350.062L473.842 375.312L473.302 424.876Z" fill="white" stroke="#D0CDD7" stroke-width="0.75"/>
<path d="M131.065 80.0342L131.95 129.593L89.4736 155.14L46.1114 131.127L45.2258 81.568L87.7024 56.0216L131.065 80.0342Z" fill="white" stroke="#D0CDD7" stroke-width="0.75"/>
<path opacity="0.9" d="M175.35 153.059L175.951 202.623L133.328 227.925L90.1045 203.663L89.504 154.1L132.127 128.798L175.35 153.059Z" fill="white" stroke="#D0CDD7" stroke-width="0.75"/>
<path d="M216.633 78.266L217.518 127.825L175.041 153.372L131.679 129.359L130.794 79.7998L173.27 54.2534L216.633 78.266Z" fill="white" stroke="#D0CDD7" stroke-width="0.75"/>
<path opacity="0.9" d="M260.216 152.486L260.562 202.051L217.809 227.133L174.711 202.65L174.366 153.084L217.119 128.002L260.216 152.486Z" fill="white" stroke="#D0CDD7" stroke-width="0.75"/>
<path d="M346.117 202.792L303.19 227.576L260.264 202.792V153.225L303.19 128.442L346.117 153.225V202.792Z" fill="white" stroke="#D0CDD7" stroke-width="0.75"/>
<path opacity="0.9" d="M303.687 276.911L260.619 301.447L217.836 276.418L218.121 226.851L261.189 202.315L303.972 227.345L303.687 276.911Z" fill="white" stroke="#D0CDD7" stroke-width="0.75"/>
<path d="M389.117 276.792L346.19 301.576L303.264 276.792V227.225L346.19 202.442L389.117 227.225V276.792Z" fill="white" stroke="#D0CDD7" stroke-width="0.75"/>
<path opacity="0.9" d="M345.302 350.876L302.108 375.19L259.455 349.94L259.995 300.376L303.189 276.062L345.842 301.312L345.302 350.876Z" fill="white" stroke="#D0CDD7" stroke-width="0.75"/>
<path d="M603.117 203.792L560.19 228.576L517.264 203.792V154.225L560.19 129.442L603.117 154.225V203.792Z" fill="white" stroke="#D0CDD7" stroke-width="0.75"/>
<path opacity="0.9" d="M559.461 277.876L516.268 302.19L473.614 276.94L474.154 227.376L517.348 203.062L560.002 228.312L559.461 277.876Z" fill="white" stroke="#D0CDD7" stroke-width="0.75"/>
<path d="M731.117 130.792L688.19 155.576L645.264 130.792V81.2253L688.19 56.4418L731.117 81.2253V130.792Z" fill="white" stroke="#D0CDD7" stroke-width="0.75"/>
<path opacity="0.9" d="M687.461 204.876L644.268 229.19L601.614 203.94L602.154 154.376L645.348 130.062L688.002 155.312L687.461 204.876Z" fill="white" stroke="#D0CDD7" stroke-width="0.75"/>
<path d="M774.117 204.792L731.19 229.576L688.264 204.792V155.225L731.19 130.442L774.117 155.225V204.792Z" fill="white" stroke="#D0CDD7" stroke-width="0.75"/>
<path opacity="0.9" d="M730.461 278.876L687.268 303.19L644.614 277.94L645.154 228.376L688.348 204.062L731.002 229.312L730.461 278.876Z" fill="white" stroke="#D0CDD7" stroke-width="0.75"/>
<path d="M2171.96 282.792L2129.03 307.576L2086.1 282.792V233.225L2129.03 208.442L2171.96 233.225V282.792Z" fill="white" stroke="#D0CDD7" stroke-width="0.75"/>
<path opacity="0.9" d="M2128.3 356.876L2085.11 381.19L2042.45 355.94L2042.99 306.376L2086.19 282.062L2128.84 307.312L2128.3 356.876Z" fill="white" stroke="#D0CDD7" stroke-width="0.75"/>
<path d="M1958.12 354.792L1915.19 379.576L1872.26 354.792V305.225L1915.19 280.442L1958.12 305.225V354.792Z" fill="white" stroke="#D0CDD7" stroke-width="0.75"/>
<path opacity="0.9" d="M1914.46 428.876L1871.27 453.19L1828.61 427.94L1829.15 378.376L1872.35 354.062L1915 379.312L1914.46 428.876Z" fill="white" stroke="#D0CDD7" stroke-width="0.75"/>
<path d="M1957.96 354.792L1915.03 379.576L1872.1 354.792V305.225L1915.03 280.442L1957.96 305.225V354.792Z" fill="white" stroke="#D0CDD7" stroke-width="0.75"/>
<path opacity="0.9" d="M1914.3 428.876L1871.11 453.19L1828.45 427.94L1828.99 378.376L1872.19 354.062L1914.84 379.312L1914.3 428.876Z" fill="white" stroke="#D0CDD7" stroke-width="0.75"/>
<path d="M1786.12 353.792L1743.19 378.576L1700.26 353.792V304.225L1743.19 279.442L1786.12 304.225V353.792Z" fill="white" stroke="#D0CDD7" stroke-width="0.75"/>
<path opacity="0.9" d="M1743.69 427.911L1700.62 452.447L1657.84 427.418L1658.12 377.851L1701.19 353.315L1743.97 378.345L1743.69 427.911Z" fill="white" stroke="#D0CDD7" stroke-width="0.75"/>
<path d="M1829.12 427.792L1786.19 452.576L1743.26 427.792V378.225L1786.19 353.442L1829.12 378.225V427.792Z" fill="white" stroke="#D0CDD7" stroke-width="0.75"/>
<path opacity="0.9" d="M1785.3 501.876L1742.11 526.19L1699.45 500.94L1699.99 451.376L1743.19 427.062L1785.84 452.312L1785.3 501.876Z" fill="white" stroke="#D0CDD7" stroke-width="0.75"/>
<path opacity="0.9" d="M1572.22 229.486L1572.56 279.051L1529.81 304.133L1486.71 279.65L1486.37 230.084L1529.12 205.002L1572.22 229.486Z" fill="white" stroke="#D0CDD7" stroke-width="0.75"/>
<path d="M1658.12 279.792L1615.19 304.576L1572.26 279.792V230.225L1615.19 205.442L1658.12 230.225V279.792Z" fill="white" stroke="#D0CDD7" stroke-width="0.75"/>
<path opacity="0.9" d="M1615.69 353.911L1572.62 378.447L1529.84 353.418L1530.12 303.851L1573.19 279.315L1615.97 304.345L1615.69 353.911Z" fill="white" stroke="#D0CDD7" stroke-width="0.75"/>
<path d="M1701.12 353.792L1658.19 378.576L1615.26 353.792V304.225L1658.19 279.442L1701.12 304.225V353.792Z" fill="white" stroke="#D0CDD7" stroke-width="0.75"/>
<path opacity="0.9" d="M1657.3 427.876L1614.11 452.19L1571.45 426.94L1571.99 377.376L1615.19 353.062L1657.84 378.312L1657.3 427.876Z" fill="white" stroke="#D0CDD7" stroke-width="0.75"/>
<path d="M1915.12 280.792L1872.19 305.576L1829.26 280.792V231.225L1872.19 206.442L1915.12 231.225V280.792Z" fill="white" stroke="#D0CDD7" stroke-width="0.75"/>
<path opacity="0.9" d="M1871.46 354.876L1828.27 379.19L1785.61 353.94L1786.15 304.376L1829.35 280.062L1872 305.312L1871.46 354.876Z" fill="white" stroke="#D0CDD7" stroke-width="0.75"/>
<path d="M2043.12 207.792L2000.19 232.576L1957.26 207.792V158.225L2000.19 133.442L2043.12 158.225V207.792Z" fill="white" stroke="#D0CDD7" stroke-width="0.75"/>
<path opacity="0.9" d="M1999.46 281.876L1956.27 306.19L1913.61 280.94L1914.15 231.376L1957.35 207.062L2000 232.312L1999.46 281.876Z" fill="white" stroke="#D0CDD7" stroke-width="0.75"/>
<path d="M2086.12 281.792L2043.19 306.576L2000.26 281.792V232.225L2043.19 207.442L2086.12 232.225V281.792Z" fill="white" stroke="#D0CDD7" stroke-width="0.75"/>
<path opacity="0.9" d="M2042.46 355.876L1999.27 380.19L1956.61 354.94L1957.15 305.376L2000.35 281.062L2043 306.312L2042.46 355.876Z" fill="white" stroke="#D0CDD7" stroke-width="0.75"/>
</svg>
