<svg width="528" height="61" viewBox="0 0 528 61" fill="none" xmlns="http://www.w3.org/2000/svg">
<path d="M11.0263 46C9.91692 46 9.25558 45.424 9.04225 44.272L0.78625 3.184C0.743584 2.97066 0.72225 2.736 0.72225 2.48C0.72225 2.13867 0.85025 1.84 1.10625 1.584C1.36225 1.328 1.66092 1.2 2.00225 1.2H5.33025C6.22625 1.2 6.73825 1.56266 6.86625 2.288L13.3943 35.312L20.3063 12.656C20.6903 11.632 21.3729 11.12 22.3543 11.12H24.7223C25.2769 11.12 25.7036 11.2693 26.0023 11.568C26.3436 11.8667 26.5783 12.2293 26.7063 12.656L33.6823 35.312L40.1463 2.288C40.2743 1.56266 40.8076 1.2 41.7463 1.2H45.0743C45.4156 1.2 45.7143 1.328 45.9703 1.584C46.2263 1.84 46.3543 2.13867 46.3543 2.48L46.2903 3.184L38.0343 44.272C37.7783 45.424 37.1169 46 36.0503 46H33.5543C32.4449 46 31.7409 45.4667 31.4423 44.4L23.5063 20.016L15.6343 44.4C15.2929 45.4667 14.5889 46 13.5223 46H11.0263ZM61.7348 46.64C59.6441 46.64 57.7028 46.2133 55.9108 45.36C54.1188 44.5067 52.6894 43.3547 51.6228 41.904C50.5988 40.4107 50.0868 38.768 50.0868 36.976C50.0868 34.16 51.2388 31.856 53.5428 30.064C55.8894 28.2293 59.0468 27.0347 63.0148 26.48L72.5508 25.136V23.28C72.5508 18.928 70.0548 16.752 65.0628 16.752C63.1854 16.752 61.6494 17.1573 60.4548 17.968C59.2601 18.736 58.3641 19.6533 57.7668 20.72C57.6388 21.104 57.4681 21.3813 57.2548 21.552C57.0841 21.7227 56.8281 21.808 56.4868 21.808H53.7348C53.3508 21.808 53.0094 21.68 52.7108 21.424C52.4548 21.1253 52.3268 20.784 52.3268 20.4C52.3694 19.376 52.8388 18.224 53.7348 16.944C54.6734 15.6213 56.1028 14.4907 58.0228 13.552C59.9428 12.5707 62.3108 12.08 65.1268 12.08C69.9054 12.08 73.3401 13.2107 75.4308 15.472C77.5214 17.6907 78.5668 20.464 78.5668 23.792V44.528C78.5668 44.9547 78.4174 45.3173 78.1188 45.616C77.8628 45.872 77.5214 46 77.0948 46H74.1508C73.7241 46 73.3614 45.872 73.0628 45.616C72.8068 45.3173 72.6788 44.9547 72.6788 44.528V41.776C71.7401 43.1413 70.3748 44.2933 68.5828 45.232C66.7908 46.1707 64.5081 46.64 61.7348 46.64ZM63.0788 41.84C65.8521 41.84 68.1134 40.944 69.8628 39.152C71.6548 37.3173 72.5508 34.6933 72.5508 31.28V29.488L65.1268 30.576C62.0974 31.0027 59.8148 31.728 58.2788 32.752C56.7428 33.7333 55.9748 34.992 55.9748 36.528C55.9748 38.2347 56.6788 39.5573 58.0868 40.496C59.4948 41.392 61.1588 41.84 63.0788 41.84ZM89.3033 46C88.8766 46 88.5139 45.872 88.2153 45.616C87.9593 45.3173 87.8313 44.9547 87.8313 44.528V2.032C87.8313 1.60533 87.9593 1.264 88.2153 1.008C88.5139 0.709332 88.8766 0.559998 89.3033 0.559998H92.3113C92.7379 0.559998 93.0793 0.709332 93.3353 1.008C93.6339 1.264 93.7833 1.60533 93.7833 2.032V24.304L106.391 13.808C106.519 13.7227 106.733 13.552 107.031 13.296C107.33 13.0827 107.607 12.9333 107.863 12.848C108.162 12.7627 108.525 12.72 108.951 12.72H112.343C112.727 12.72 113.047 12.848 113.303 13.104C113.559 13.36 113.687 13.68 113.687 14.064C113.687 14.5333 113.431 14.9387 112.919 15.28L98.1353 27.568L114.519 43.504C115.031 43.9307 115.287 44.3147 115.287 44.656C115.287 45.04 115.159 45.36 114.903 45.616C114.647 45.872 114.327 46 113.943 46H110.615C109.975 46 109.506 45.936 109.207 45.808C108.951 45.68 108.567 45.3813 108.055 44.912L93.7833 31.28V44.528C93.7833 44.9547 93.6339 45.3173 93.3353 45.616C93.0793 45.872 92.7379 46 92.3113 46H89.3033ZM121.727 6.512C121.301 6.512 120.938 6.384 120.639 6.128C120.383 5.82933 120.255 5.46666 120.255 5.04V1.584C120.255 1.15733 120.383 0.794664 120.639 0.495998C120.938 0.19733 121.301 0.0479965 121.727 0.0479965H125.759C126.186 0.0479965 126.549 0.19733 126.847 0.495998C127.146 0.794664 127.295 1.15733 127.295 1.584V5.04C127.295 5.46666 127.146 5.82933 126.847 6.128C126.549 6.384 126.186 6.512 125.759 6.512H121.727ZM122.239 46C121.813 46 121.45 45.872 121.151 45.616C120.895 45.3173 120.767 44.9547 120.767 44.528V14.192C120.767 13.7653 120.895 13.424 121.151 13.168C121.45 12.8693 121.813 12.72 122.239 12.72H125.311C125.738 12.72 126.079 12.8693 126.335 13.168C126.634 13.424 126.783 13.7653 126.783 14.192V44.528C126.783 44.9547 126.634 45.3173 126.335 45.616C126.079 45.872 125.738 46 125.311 46H122.239ZM137.739 46C137.313 46 136.95 45.872 136.651 45.616C136.395 45.3173 136.267 44.9547 136.267 44.528V14.192C136.267 13.7653 136.395 13.424 136.651 13.168C136.95 12.8693 137.313 12.72 137.739 12.72H140.747C141.174 12.72 141.515 12.8693 141.771 13.168C142.07 13.424 142.219 13.7653 142.219 14.192V17.008C143.457 15.4293 144.907 14.2133 146.571 13.36C148.278 12.5067 150.39 12.08 152.907 12.08C157.003 12.08 160.182 13.4027 162.443 16.048C164.747 18.6507 165.899 22.128 165.899 26.48V44.528C165.899 44.9547 165.75 45.3173 165.451 45.616C165.195 45.872 164.854 46 164.427 46H161.227C160.801 46 160.438 45.872 160.139 45.616C159.883 45.3173 159.755 44.9547 159.755 44.528V26.8C159.755 23.7707 159.009 21.424 157.515 19.76C156.065 18.096 153.953 17.264 151.179 17.264C148.491 17.264 146.358 18.1173 144.779 19.824C143.201 21.488 142.411 23.8133 142.411 26.8V44.528C142.411 44.9547 142.262 45.3173 141.963 45.616C141.707 45.872 141.366 46 140.939 46H137.739ZM188.712 60.08C185.213 60.08 182.397 59.4827 180.264 58.288C178.13 57.136 176.616 55.8133 175.72 54.32C174.824 52.8267 174.333 51.4827 174.248 50.288C174.205 49.8613 174.333 49.4987 174.632 49.2C174.973 48.9013 175.336 48.752 175.72 48.752H178.792C179.176 48.752 179.496 48.8373 179.752 49.008C180.008 49.2213 180.221 49.584 180.392 50.096C180.904 51.4613 181.736 52.6347 182.888 53.616C184.082 54.64 185.917 55.152 188.392 55.152C191.549 55.152 193.874 54.4693 195.368 53.104C196.861 51.7813 197.608 49.4133 197.608 46V41.648C196.498 43.056 195.09 44.1867 193.384 45.04C191.677 45.8507 189.65 46.256 187.304 46.256C182.781 46.256 179.389 44.8267 177.128 41.968C174.909 39.0667 173.736 35.3973 173.608 30.96L173.544 29.168L173.608 27.44C173.736 23.0453 174.93 19.3973 177.192 16.496C179.453 13.552 182.824 12.08 187.304 12.08C191.784 12.08 195.282 13.7227 197.8 17.008V14.256C197.8 13.8293 197.928 13.4667 198.184 13.168C198.482 12.8693 198.845 12.72 199.272 12.72H202.216C202.642 12.72 203.005 12.8693 203.304 13.168C203.602 13.4667 203.752 13.8293 203.752 14.256V45.296C203.752 55.152 198.738 60.08 188.712 60.08ZM188.584 41.136C191.485 41.136 193.682 40.176 195.176 38.256C196.669 36.336 197.48 34.0533 197.608 31.408C197.65 31.024 197.672 30.2773 197.672 29.168C197.672 28.1013 197.65 27.376 197.608 26.992C197.48 24.3467 196.669 22.064 195.176 20.144C193.725 18.224 191.528 17.264 188.584 17.264C185.554 17.264 183.357 18.2027 181.992 20.08C180.626 21.9573 179.88 24.432 179.752 27.504L179.688 29.168L179.752 30.896C179.88 33.9253 180.626 36.4 181.992 38.32C183.357 40.1973 185.554 41.136 188.584 41.136ZM231.259 46C230.832 46 230.469 45.872 230.171 45.616C229.915 45.3173 229.787 44.9547 229.787 44.528V2.736C229.787 2.26666 229.915 1.904 230.171 1.648C230.469 1.34933 230.832 1.2 231.259 1.2H245.787C252.229 1.2 256.88 2.65066 259.739 5.552C262.597 8.41067 264.091 12.7413 264.219 18.544C264.261 19.7813 264.283 21.4453 264.283 23.536C264.283 25.6267 264.261 27.312 264.219 28.592C264.091 32.6453 263.408 35.952 262.171 38.512C260.976 41.0293 259.077 42.9067 256.475 44.144C253.872 45.3813 250.416 46 246.107 46H231.259ZM245.787 40.56C248.731 40.56 251.056 40.1547 252.763 39.344C254.512 38.5333 255.771 37.2533 256.539 35.504C257.349 33.712 257.797 31.3227 257.883 28.336C257.968 25.776 258.011 24.176 258.011 23.536C258.011 22.8533 257.968 21.2747 257.883 18.8C257.797 14.576 256.795 11.504 254.875 9.584C252.955 7.62133 249.819 6.64 245.467 6.64H236.059V40.56H245.787ZM282.36 46.64C280.269 46.64 278.328 46.2133 276.536 45.36C274.744 44.5067 273.314 43.3547 272.248 41.904C271.224 40.4107 270.712 38.768 270.712 36.976C270.712 34.16 271.864 31.856 274.168 30.064C276.514 28.2293 279.672 27.0347 283.64 26.48L293.176 25.136V23.28C293.176 18.928 290.68 16.752 285.688 16.752C283.81 16.752 282.274 17.1573 281.08 17.968C279.885 18.736 278.989 19.6533 278.392 20.72C278.264 21.104 278.093 21.3813 277.88 21.552C277.709 21.7227 277.453 21.808 277.112 21.808H274.36C273.976 21.808 273.634 21.68 273.336 21.424C273.08 21.1253 272.952 20.784 272.952 20.4C272.994 19.376 273.464 18.224 274.36 16.944C275.298 15.6213 276.728 14.4907 278.648 13.552C280.568 12.5707 282.936 12.08 285.752 12.08C290.53 12.08 293.965 13.2107 296.056 15.472C298.146 17.6907 299.192 20.464 299.192 23.792V44.528C299.192 44.9547 299.042 45.3173 298.744 45.616C298.488 45.872 298.146 46 297.72 46H294.776C294.349 46 293.986 45.872 293.688 45.616C293.432 45.3173 293.304 44.9547 293.304 44.528V41.776C292.365 43.1413 291 44.2933 289.208 45.232C287.416 46.1707 285.133 46.64 282.36 46.64ZM283.704 41.84C286.477 41.84 288.738 40.944 290.488 39.152C292.28 37.3173 293.176 34.6933 293.176 31.28V29.488L285.752 30.576C282.722 31.0027 280.44 31.728 278.904 32.752C277.368 33.7333 276.6 34.992 276.6 36.528C276.6 38.2347 277.304 39.5573 278.712 40.496C280.12 41.392 281.784 41.84 283.704 41.84ZM319.351 46C318.242 46 317.453 45.4667 316.983 44.4L305.143 14.704L305.015 14.064C305.015 13.68 305.143 13.36 305.399 13.104C305.655 12.848 305.975 12.72 306.359 12.72H309.431C310.157 12.72 310.69 13.0827 311.031 13.808L320.759 39.024L330.487 13.808C330.871 13.0827 331.383 12.72 332.023 12.72H335.159C335.501 12.72 335.799 12.848 336.055 13.104C336.354 13.36 336.503 13.68 336.503 14.064L336.375 14.704L324.471 44.4C324.002 45.4667 323.213 46 322.103 46H319.351ZM344.165 6.512C343.738 6.512 343.375 6.384 343.077 6.128C342.821 5.82933 342.693 5.46666 342.693 5.04V1.584C342.693 1.15733 342.821 0.794664 343.077 0.495998C343.375 0.19733 343.738 0.0479965 344.165 0.0479965H348.197C348.623 0.0479965 348.986 0.19733 349.285 0.495998C349.583 0.794664 349.733 1.15733 349.733 1.584V5.04C349.733 5.46666 349.583 5.82933 349.285 6.128C348.986 6.384 348.623 6.512 348.197 6.512H344.165ZM344.677 46C344.25 46 343.887 45.872 343.589 45.616C343.333 45.3173 343.205 44.9547 343.205 44.528V14.192C343.205 13.7653 343.333 13.424 343.589 13.168C343.887 12.8693 344.25 12.72 344.677 12.72H347.749C348.175 12.72 348.517 12.8693 348.773 13.168C349.071 13.424 349.221 13.7653 349.221 14.192V44.528C349.221 44.9547 349.071 45.3173 348.773 45.616C348.517 45.872 348.175 46 347.749 46H344.677ZM370.865 46.64C366.427 46.64 363.078 45.1893 360.817 42.288C358.555 39.3867 357.361 35.7173 357.233 31.28L357.169 29.36L357.233 27.44C357.361 23.0453 358.555 19.3973 360.817 16.496C363.078 13.552 366.427 12.08 370.865 12.08C375.259 12.08 378.715 13.6373 381.233 16.752V2.032C381.233 1.60533 381.361 1.264 381.617 1.008C381.915 0.709332 382.278 0.559998 382.705 0.559998H385.777C386.203 0.559998 386.545 0.709332 386.801 1.008C387.099 1.264 387.249 1.60533 387.249 2.032V44.528C387.249 44.9547 387.099 45.3173 386.801 45.616C386.545 45.872 386.203 46 385.777 46H382.897C382.47 46 382.107 45.872 381.809 45.616C381.553 45.3173 381.425 44.9547 381.425 44.528V41.84C378.95 45.04 375.43 46.64 370.865 46.64ZM372.209 41.456C375.153 41.456 377.35 40.496 378.801 38.576C380.294 36.6133 381.105 34.288 381.233 31.6C381.275 31.1307 381.297 30.32 381.297 29.168C381.297 27.9733 381.275 27.1413 381.233 26.672C381.147 24.1547 380.337 21.9573 378.801 20.08C377.265 18.2027 375.067 17.264 372.209 17.264C369.179 17.264 366.961 18.2027 365.553 20.08C364.187 21.9573 363.441 24.432 363.313 27.504L363.249 29.36C363.249 37.424 366.235 41.456 372.209 41.456ZM424.871 46.64C420.817 46.64 417.681 45.3387 415.463 42.736C413.244 40.0907 412.135 36.592 412.135 32.24V14.192C412.135 13.7653 412.263 13.424 412.519 13.168C412.817 12.8693 413.18 12.72 413.607 12.72H416.807C417.233 12.72 417.575 12.8693 417.831 13.168C418.129 13.424 418.279 13.7653 418.279 14.192V31.92C418.279 38.2773 421.052 41.456 426.599 41.456C429.287 41.456 431.42 40.624 432.999 38.96C434.577 37.2533 435.367 34.9067 435.367 31.92V14.192C435.367 13.7653 435.495 13.424 435.751 13.168C436.049 12.8693 436.412 12.72 436.839 12.72H440.039C440.465 12.72 440.807 12.8693 441.063 13.168C441.319 13.424 441.447 13.7653 441.447 14.192V44.528C441.447 44.9547 441.319 45.3173 441.063 45.616C440.807 45.872 440.465 46 440.039 46H437.031C436.604 46 436.241 45.872 435.943 45.616C435.687 45.3173 435.559 44.9547 435.559 44.528V41.712C434.364 43.3333 432.913 44.5707 431.207 45.424C429.5 46.2347 427.388 46.64 424.871 46.64ZM452.491 58.16C452.064 58.16 451.701 58.0107 451.403 57.712C451.147 57.456 451.019 57.1147 451.019 56.688V14.192C451.019 13.7653 451.147 13.424 451.403 13.168C451.701 12.8693 452.064 12.72 452.491 12.72H455.435C455.861 12.72 456.203 12.8693 456.459 13.168C456.757 13.424 456.907 13.7653 456.907 14.192V17.008C459.296 13.7227 462.795 12.08 467.403 12.08C471.883 12.08 475.232 13.488 477.451 16.304C479.712 19.12 480.928 22.7467 481.099 27.184C481.141 27.6533 481.163 28.3787 481.163 29.36C481.163 30.3413 481.141 31.0667 481.099 31.536C480.928 35.9307 479.712 39.5573 477.451 42.416C475.189 45.232 471.84 46.64 467.403 46.64C462.965 46.64 459.509 45.04 457.035 41.84V56.688C457.035 57.1147 456.907 57.456 456.651 57.712C456.395 58.0107 456.053 58.16 455.627 58.16H452.491ZM466.059 41.456C469.088 41.456 471.285 40.5173 472.651 38.64C474.059 36.7627 474.827 34.288 474.955 31.216C474.997 30.7893 475.019 30.1707 475.019 29.36C475.019 21.296 472.032 17.264 466.059 17.264C463.115 17.264 460.896 18.2453 459.403 20.208C457.952 22.128 457.163 24.432 457.035 27.12L456.971 29.552L457.035 32.048C457.12 34.5653 457.931 36.7627 459.467 38.64C461.003 40.5173 463.2 41.456 466.059 41.456ZM489.479 46C489.052 46 488.689 45.872 488.391 45.616C488.135 45.3173 488.007 44.9547 488.007 44.528V39.92C488.007 39.4933 488.135 39.152 488.391 38.896C488.689 38.5973 489.052 38.448 489.479 38.448H494.087C494.513 38.448 494.876 38.5973 495.175 38.896C495.473 39.152 495.623 39.4933 495.623 39.92V44.528C495.623 44.9547 495.473 45.3173 495.175 45.616C494.876 45.872 494.513 46 494.087 46H489.479ZM505.604 46C505.177 46 504.814 45.872 504.516 45.616C504.26 45.3173 504.132 44.9547 504.132 44.528V39.92C504.132 39.4933 504.26 39.152 504.516 38.896C504.814 38.5973 505.177 38.448 505.604 38.448H510.212C510.638 38.448 511.001 38.5973 511.3 38.896C511.598 39.152 511.748 39.4933 511.748 39.92V44.528C511.748 44.9547 511.598 45.3173 511.3 45.616C511.001 45.872 510.638 46 510.212 46H505.604ZM521.729 46C521.302 46 520.939 45.872 520.641 45.616C520.385 45.3173 520.257 44.9547 520.257 44.528V39.92C520.257 39.4933 520.385 39.152 520.641 38.896C520.939 38.5973 521.302 38.448 521.729 38.448H526.337C526.763 38.448 527.126 38.5973 527.425 38.896C527.723 39.152 527.873 39.4933 527.873 39.92V44.528C527.873 44.9547 527.723 45.3173 527.425 45.616C527.126 45.872 526.763 46 526.337 46H521.729Z" fill="white"/>
</svg>
