<svg width="86" height="65" viewBox="0 0 86 65" fill="none" xmlns="http://www.w3.org/2000/svg">
<rect x="1" y="1" width="84" height="63" fill="#282C34" stroke="#D0CDD7" stroke-width="2"/>
<path d="M14.9609 49V14.875H24.5938C27.5625 14.875 30.1875 15.5312 32.4688 16.8438C34.75 18.1562 36.5078 20.0234 37.7422 22.4453C38.9922 24.8672 39.625 27.6484 39.6406 30.7891V32.9688C39.6406 36.1875 39.0156 39.0078 37.7656 41.4297C36.5312 43.8516 34.7578 45.7109 32.4453 47.0078C30.1484 48.3047 27.4688 48.9688 24.4062 49H14.9609ZM19.4609 18.5781V45.3203H24.1953C27.6641 45.3203 30.3594 44.2422 32.2812 42.0859C34.2188 39.9297 35.1875 36.8594 35.1875 32.875V30.8828C35.1875 27.0078 34.2734 24 32.4453 21.8594C30.6328 19.7031 28.0547 18.6094 24.7109 18.5781H19.4609ZM71.6562 44.5234C70.5 46.1797 68.8828 47.4219 66.8047 48.25C64.7422 49.0625 62.3359 49.4688 59.5859 49.4688C56.8047 49.4688 54.3359 48.8203 52.1797 47.5234C50.0234 46.2109 48.3516 44.3516 47.1641 41.9453C45.9922 39.5391 45.3906 36.75 45.3594 33.5781V30.6016C45.3594 25.4609 46.5547 21.4766 48.9453 18.6484C51.3516 15.8203 54.7266 14.4062 59.0703 14.4062C62.6328 14.4062 65.5 15.3203 67.6719 17.1484C69.8438 18.9609 71.1719 21.5391 71.6562 24.8828H67.1562C66.3125 20.3672 63.625 18.1094 59.0938 18.1094C56.0781 18.1094 53.7891 19.1719 52.2266 21.2969C50.6797 23.4062 49.8984 26.4688 49.8828 30.4844V33.2734C49.8828 37.1016 50.7578 40.1484 52.5078 42.4141C54.2578 44.6641 56.625 45.7891 59.6094 45.7891C61.2969 45.7891 62.7734 45.6016 64.0391 45.2266C65.3047 44.8516 66.3516 44.2188 67.1797 43.3281V35.6641H59.2812V32.0078H71.6562V44.5234Z" fill="#D0CDD7"/>
</svg>
